<svg width="822" height="800" viewBox="0 0 822 800" fill="none" xmlns="http://www.w3.org/2000/svg">
<path d="M655.5 517.5C632.083 545.907 655.5 651 655.5 651C655.5 651 583 583 536.5 590C492.186 596.671 445 696 445 696C445 696 415 619.257 363.5 606C326.112 596.375 257.5 688 257.5 688C257.5 688 262 610.5 214 570.5C171.421 535.017 77 560 77 560C77 560 134.5 515 121 446C110.264 391.126 21 350.5 21 350.5C21 350.5 121.143 347.064 134.5 280C141.96 242.542 121 185.5 121 185.5C121 185.5 202.583 252.224 290.5 228.5C353.5 211.5 363.5 108 363.5 108C363.5 108 397.307 182.383 465 198.5C528 213.5 574.5 108 574.5 108C574.5 108 547.5 202.5 617.5 228.5C666.788 246.807 750.5 233.5 750.5 233.5C750.5 233.5 691.506 317.863 701.5 369.5C710.5 416 796.5 482 796.5 482C796.5 482 686 480.5 655.5 517.5Z" fill="white" stroke="black" stroke-width="17"/>
</svg>
